<svg width="28" height="26" viewBox="0 0 28 26" fill="none" xmlns="http://www.w3.org/2000/svg">
<path d="M14.3329 22.0007L14.1966 22.137L14.0467 22.0007C7.57536 16.1288 3.29743 12.2459 3.29743 8.30862C3.29743 5.58382 5.34102 3.54023 8.06582 3.54023C10.1639 3.54023 12.2075 4.90262 12.9296 6.75548H15.4636C16.1857 4.90262 18.2293 3.54023 20.3274 3.54023C23.0522 3.54023 25.0958 5.58382 25.0958 8.30862C25.0958 12.2459 20.8179 16.1288 14.3329 22.0007ZM20.3274 0.81543C17.9568 0.81543 15.6816 1.91897 14.1966 3.64922C12.7116 1.91897 10.4364 0.81543 8.06582 0.81543C3.86963 0.81543 0.572632 4.09881 0.572632 8.30862C0.572632 13.4449 5.20478 17.6547 12.2211 24.0171L14.1966 25.8154L16.1721 24.0171C23.1884 17.6547 27.8206 13.4449 27.8206 8.30862C27.8206 4.09881 24.5236 0.81543 20.3274 0.81543Z" fill="#101719"/>
</svg>
