<svg width="30" height="31" viewBox="0 0 30 31" fill="none" xmlns="http://www.w3.org/2000/svg">
<path d="M7 0.904541C3.13401 0.904541 0 4.03855 0 7.90454V23.9045C0 27.7705 3.13401 30.9045 7 30.9045H23C26.866 30.9045 30 27.7705 30 23.9045V7.90454C30 4.03855 26.866 0.904541 23 0.904541H7ZM21.5808 4.81934C21.7987 4.81472 22.0256 4.82179 22.2601 4.83764C22.5604 4.83805 22.8653 4.84775 23.1729 4.86353C24.1533 4.91384 24.8942 5.76049 24.8674 6.74176C24.84 7.74685 24.0173 8.54737 23.0118 8.54737H22.4194C21.2947 8.52247 20.8885 8.95919 20.852 10.2283V11.0302C20.852 12.1285 21.7424 13.0188 22.8406 13.0188H22.9304C24.0127 13.0188 24.877 13.9204 24.8312 15.0017C24.788 16.0202 23.9498 16.8237 22.9304 16.8237H22.8443C21.744 16.8237 20.852 17.7157 20.852 18.816V25.4343C20.852 26.5289 19.9646 27.4164 18.8699 27.4164C17.7752 27.4164 16.8878 26.5289 16.8878 25.4343V18.1998C16.8878 17.4398 16.2718 16.8237 15.5118 16.8237C14.7518 16.8237 14.1357 16.2077 14.1357 15.4477V14.3948C14.1357 13.6349 14.7518 13.0188 15.5118 13.0188C16.2718 13.0188 16.8878 12.4027 16.8878 11.6428V9.75219C16.8878 7.39697 17.8836 5.89784 19.845 5.13794C20.3487 4.93974 20.9272 4.83322 21.5808 4.81934Z" fill="#101719"/>
</svg>
