<svg width="18" height="22" viewBox="0 0 18 22" fill="none" xmlns="http://www.w3.org/2000/svg">
<path fill-rule="evenodd" clip-rule="evenodd" d="M4.74365 9.6102C4.74365 8.35043 5.2441 7.14224 6.1349 6.25145C7.02569 5.36065 8.23387 4.8602 9.49365 4.8602C10.7534 4.8602 11.9616 5.36065 12.8524 6.25145C13.7432 7.14224 14.2437 8.35043 14.2437 9.6102C14.2437 10.87 13.7432 12.0782 12.8524 12.969C11.9616 13.8598 10.7534 14.3602 9.49365 14.3602C8.23387 14.3602 7.02569 13.8598 6.1349 12.969C5.2441 12.0782 4.74365 10.87 4.74365 9.6102ZM9.49365 6.3602C8.6317 6.3602 7.80505 6.70261 7.19556 7.31211C6.58606 7.9216 6.24365 8.74825 6.24365 9.6102C6.24365 10.4722 6.58606 11.2988 7.19556 11.9083C7.80505 12.5178 8.6317 12.8602 9.49365 12.8602C10.3556 12.8602 11.1823 12.5178 11.7917 11.9083C12.4012 11.2988 12.7437 10.4722 12.7437 9.6102C12.7437 8.74825 12.4012 7.9216 11.7917 7.31211C11.1823 6.70261 10.3556 6.3602 9.49365 6.3602Z" fill="#F5F5F5"/>
<path fill-rule="evenodd" clip-rule="evenodd" d="M1.01763 8.4672C1.18901 6.39418 2.13344 4.46133 3.66353 3.05221C5.19362 1.64308 7.19753 0.86066 9.27763 0.860204H9.70963C11.7897 0.86066 13.7936 1.64308 15.3237 3.05221C16.8538 4.46133 17.7983 6.39418 17.9696 8.4672C18.1603 10.7765 17.4468 13.0697 15.9796 14.8632L11.1866 20.7242C10.9815 20.975 10.7232 21.1772 10.4304 21.316C10.1376 21.4547 9.81765 21.5267 9.49363 21.5267C9.16961 21.5267 8.84963 21.4547 8.55684 21.316C8.26404 21.1772 8.00575 20.975 7.80063 20.7242L3.00763 14.8632C1.54046 13.0697 0.826997 10.7765 1.01763 8.4672ZM9.27763 2.3602C7.57425 2.36092 5.93335 3.00185 4.68044 4.15585C3.42752 5.30985 2.65412 6.89262 2.51363 8.5902C2.35491 10.5121 2.94863 12.4205 4.16963 13.9132L8.96263 19.7752C9.02706 19.8541 9.10822 19.9176 9.20023 19.9612C9.29224 20.0049 9.3928 20.0275 9.49463 20.0275C9.59646 20.0275 9.69702 20.0049 9.78903 19.9612C9.88104 19.9176 9.9622 19.8541 10.0266 19.7752L14.8196 13.9132C16.0399 12.4202 16.6329 10.5118 16.4736 8.5902C16.3331 6.89245 15.5596 5.30954 14.3065 4.15551C13.0533 3.00149 11.4122 2.36067 9.70863 2.3602H9.27763Z" fill="#F5F5F5"/>
</svg>
