<svg width="21" height="21" viewBox="0 0 21 21" fill="none" xmlns="http://www.w3.org/2000/svg">
<path d="M14.9977 12.1555C14.7544 12.0305 13.5424 11.4368 13.317 11.3564C13.0915 11.2716 12.9263 11.2314 12.7634 11.4814C12.5982 11.7292 12.1295 12.2805 11.9821 12.4479C11.8393 12.6131 11.6942 12.6332 11.4509 12.5104C10.0045 11.7872 9.05585 11.2203 8.10273 9.5841C7.8505 9.14883 8.35496 9.18008 8.82594 8.24035C8.90629 8.07517 8.86612 7.93455 8.80362 7.80955C8.74112 7.68455 8.25005 6.47473 8.0447 5.98142C7.84604 5.50151 7.64069 5.56848 7.49113 5.55955C7.34828 5.55062 7.18533 5.55062 7.02016 5.55062C6.85498 5.55062 6.58936 5.61312 6.36392 5.85642C6.13847 6.10419 5.50232 6.70017 5.50232 7.90999C5.50232 9.11982 6.384 10.2917 6.50454 10.4569C6.62954 10.622 8.23889 13.1042 10.7098 14.1734C12.2723 14.8475 12.8839 14.9055 13.6652 14.7895C14.1406 14.718 15.1205 14.1957 15.3236 13.6176C15.5267 13.0417 15.5267 12.5484 15.4665 12.4457C15.4062 12.3363 15.241 12.2738 14.9977 12.1555Z" fill="#F5F5F5"/>
<path d="M19.7231 6.31848C19.2186 5.11981 18.4954 4.04392 17.5736 3.11982C16.6517 2.19794 15.5758 1.47249 14.375 0.970262C13.1473 0.454637 11.8437 0.193476 10.5 0.193476H10.4554C9.1027 0.200172 7.79245 0.468029 6.56032 0.994815C5.3706 1.50374 4.30365 2.22696 3.39072 3.14883C2.47778 4.07071 1.76127 5.14214 1.26574 6.33633C0.752356 7.57294 0.49343 8.88767 0.500127 10.2404C0.506823 11.7895 0.877354 13.3274 1.57154 14.7024V18.0953C1.57154 18.6622 2.03136 19.122 2.59831 19.122H5.99336C7.36834 19.8162 8.90627 20.1868 10.4554 20.1935H10.5022C11.8393 20.1935 13.1361 19.9345 14.3571 19.4279C15.5513 18.9301 16.6249 18.2158 17.5446 17.3029C18.4664 16.3899 19.1919 15.3229 19.6985 14.1332C20.2253 12.9011 20.4932 11.5908 20.4999 10.2381C20.5066 8.87874 20.2432 7.55955 19.7231 6.31848ZM16.3504 16.0953C14.7857 17.6444 12.7098 18.497 10.5 18.497H10.4621C9.11609 18.4904 7.77905 18.1555 6.59827 17.5261L6.41077 17.4256H3.26795V14.2828L3.1675 14.0953C2.53805 12.9145 2.20323 11.5774 2.19653 10.2314C2.18761 8.00598 3.03804 5.91669 4.59829 4.34303C6.15631 2.76937 8.23887 1.89883 10.4643 1.8899H10.5022C11.6183 1.8899 12.7009 2.10642 13.7209 2.53499C14.7165 2.9524 15.6093 3.55285 16.3772 4.32071C17.1428 5.08633 17.7454 5.98142 18.1629 6.97696C18.5959 8.00821 18.8124 9.10196 18.8079 10.2314C18.7945 12.4546 17.9218 14.5372 16.3504 16.0953Z" fill="#F5F5F5"/>
</svg>
