<svg width="31" height="31" viewBox="0 0 31 31" fill="none" xmlns="http://www.w3.org/2000/svg">
<path d="M16.6569 0.904541C18.3444 0.909041 19.2009 0.918041 19.9404 0.93904L20.2314 0.94954C20.5674 0.96154 20.8988 0.976539 21.2993 0.994539C22.8953 1.06954 23.9843 1.32153 24.9397 1.69202C25.9297 2.07301 26.7637 2.589 27.5977 3.42148C28.3607 4.17106 28.9509 5.07815 29.3271 6.07941C29.6976 7.03489 29.9496 8.12387 30.0246 9.72133C30.0426 10.1203 30.0576 10.4518 30.0696 10.7893L30.0786 11.0803C30.1011 11.8183 30.1101 12.6748 30.1131 14.3622L30.1146 15.4812V17.4461C30.1183 18.5402 30.1068 19.6343 30.0801 20.7281L30.0711 21.0191C30.0591 21.3565 30.0441 21.688 30.0261 22.087C29.9511 23.6845 29.6961 24.772 29.3271 25.7289C28.9509 26.7302 28.3607 27.6373 27.5977 28.3869C26.8481 29.1499 25.941 29.7401 24.9397 30.1163C23.9843 30.4868 22.8953 30.7388 21.2993 30.8138L20.2314 30.8588L19.9404 30.8678C19.2009 30.8888 18.3444 30.8993 16.6569 30.9023L15.538 30.9038H13.5745C12.4799 30.9077 11.3854 30.8962 10.2911 30.8693L10.0001 30.8603C9.64404 30.8468 9.28804 30.8313 8.93214 30.8138C7.33618 30.7388 6.24721 30.4868 5.29023 30.1163C4.2895 29.7399 3.38294 29.1497 2.63379 28.3869C1.87023 27.6374 1.27949 26.7303 0.902836 25.7289C0.532345 24.7735 0.280351 23.6845 0.205353 22.087L0.160354 21.0191L0.152854 20.7281C0.125204 19.6343 0.112703 18.5402 0.115355 17.4461V14.3622C0.111203 13.2681 0.122204 12.1741 0.148354 11.0803L0.158854 10.7893C0.170854 10.4518 0.185853 10.1203 0.203853 9.72133C0.278851 8.12387 0.530845 7.03639 0.901336 6.07941C1.27887 5.07774 1.87065 4.17062 2.63529 3.42148C3.38401 2.65882 4.29003 2.06862 5.29023 1.69202C6.24721 1.32153 7.33468 1.06954 8.93214 0.994539C9.33113 0.976539 9.66412 0.96154 10.0001 0.94954L10.2911 0.94054C11.3849 0.91389 12.4789 0.902389 13.573 0.906041L16.6569 0.904541ZM15.115 8.40436C13.1259 8.40436 11.2183 9.19452 9.81182 10.601C8.40533 12.0075 7.61517 13.9151 7.61517 15.9042C7.61517 17.8933 8.40533 19.8009 9.81182 21.2073C11.2183 22.6138 13.1259 23.404 15.115 23.404C17.1041 23.404 19.0117 22.6138 20.4182 21.2073C21.8246 19.8009 22.6148 17.8933 22.6148 15.9042C22.6148 13.9151 21.8246 12.0075 20.4182 10.601C19.0117 9.19452 17.1041 8.40436 15.115 8.40436ZM15.115 11.4043C15.7059 11.4042 16.2911 11.5205 16.8371 11.7465C17.3831 11.9726 17.8792 12.304 18.2971 12.7217C18.715 13.1395 19.0466 13.6355 19.2728 14.1814C19.499 14.7274 19.6155 15.3125 19.6156 15.9034C19.6157 16.4944 19.4994 17.0795 19.2734 17.6255C19.0473 18.1715 18.716 18.6676 18.2982 19.0855C17.8804 19.5035 17.3844 19.835 16.8385 20.0612C16.2926 20.2875 15.7074 20.404 15.1165 20.4041C13.923 20.4041 12.7785 19.93 11.9346 19.0861C11.0907 18.2422 10.6166 17.0976 10.6166 15.9042C10.6166 14.7107 11.0907 13.5662 11.9346 12.7223C12.7785 11.8784 13.923 11.4043 15.1165 11.4043M22.9913 6.15441C22.494 6.15441 22.0171 6.35195 21.6655 6.70357C21.3139 7.0552 21.1163 7.5321 21.1163 8.02937C21.1163 8.52664 21.3139 9.00354 21.6655 9.35516C22.0171 9.70678 22.494 9.90432 22.9913 9.90432C23.4886 9.90432 23.9655 9.70678 24.3171 9.35516C24.6687 9.00354 24.8662 8.52664 24.8662 8.02937C24.8662 7.5321 24.6687 7.0552 24.3171 6.70357C23.9655 6.35195 23.4886 6.15441 22.9913 6.15441Z" fill="#101719"/>
</svg>
