<svg width="30" height="31" viewBox="0 0 30 31" fill="none" xmlns="http://www.w3.org/2000/svg">
<path d="M0 3.05329C0 1.86642 0.98625 0.904541 2.20312 0.904541H27.7969C29.0138 0.904541 30 1.86642 30 3.05329V28.7558C30 29.9427 29.0138 30.9045 27.7969 30.9045H2.20312C0.98625 30.9045 0 29.9427 0 28.7558V3.05329ZM7.01719 26.0183C8.26035 26.0183 9.26812 25.0105 9.26812 23.7674V14.7224C9.26812 13.4792 8.26035 12.4714 7.01719 12.4714C5.77403 12.4714 4.76625 13.4792 4.76625 14.7224V23.7674C4.76625 25.0105 5.77403 26.0183 7.01719 26.0183ZM7.01813 10.6208C8.5875 10.6208 9.56437 9.58204 9.56437 8.28079C9.53625 6.95142 8.58938 5.94079 7.04813 5.94079C5.50688 5.94079 4.5 6.95329 4.5 8.28079C4.5 9.58204 5.47687 10.6208 6.98812 10.6208H7.01813ZM13.9758 26.0183C15.2156 26.0183 16.2206 25.0132 16.2206 23.7734V18.4527C16.2206 18.0477 16.2506 17.6427 16.3706 17.3539C16.695 16.5458 17.4356 15.7077 18.6806 15.7077C20.31 15.7077 20.9606 16.9489 20.9606 18.7714V23.7674C20.9606 25.0105 21.9684 26.0183 23.2116 26.0183C24.4547 26.0183 25.4625 25.0105 25.4625 23.7674V18.2483C25.4625 14.0858 23.2425 12.1508 20.28 12.1508C17.8913 12.1508 16.8206 13.4633 16.2206 14.3877V14.4239C16.2206 14.4298 16.2159 14.4345 16.21 14.4345C16.2016 14.4345 16.1966 14.4253 16.2011 14.4182L16.2206 14.3877C16.2206 13.3294 15.3627 12.4714 14.3044 12.4714H14.0204C12.767 12.4714 11.7401 13.5144 11.7435 14.7678C11.7505 17.3084 11.7388 21.2851 11.7297 23.7669C11.7251 25.0107 12.732 26.0183 13.9758 26.0183Z" fill="#101719"/>
</svg>
