<svg width="26" height="26" viewBox="0 0 26 26" fill="none" xmlns="http://www.w3.org/2000/svg">
<path d="M17.9948 16.5387H16.8656L16.4653 16.1528C17.8661 14.5233 18.7095 12.4078 18.7095 10.1065C18.7095 4.97495 14.55 0.81543 9.41847 0.81543C4.28696 0.81543 0.127441 4.97495 0.127441 10.1065C0.127441 15.238 4.28696 19.3975 9.41847 19.3975C11.7198 19.3975 13.8353 18.5541 15.4648 17.1533L15.8507 17.5536V18.6828L22.9977 25.8154L25.1274 23.6856L17.9948 16.5387ZM9.41847 16.5387C5.85929 16.5387 2.98622 13.6656 2.98622 10.1065C2.98622 6.54728 5.85929 3.67421 9.41847 3.67421C12.9776 3.67421 15.8507 6.54728 15.8507 10.1065C15.8507 13.6656 12.9776 16.5387 9.41847 16.5387Z" fill="#101719"/>
</svg>
