<svg width="31" height="31" viewBox="0 0 31 31" fill="none" xmlns="http://www.w3.org/2000/svg">
<path d="M5.20028 0.938721C2.83913 0.938721 0.919434 2.85841 0.919434 5.21957V26.6238C0.919434 28.985 2.83913 30.9047 5.20028 30.9047H26.6045C28.9657 30.9047 30.8854 28.985 30.8854 26.6238V5.21957C30.8854 2.85841 28.9657 0.938721 26.6045 0.938721H5.20028ZM25.0728 6.55733L18.1298 14.4903L26.2968 25.286H19.9023L14.8991 18.7377L9.16676 25.286H5.98956L13.4142 16.7979L5.58155 6.55733H12.1366L16.6649 12.5438L21.8956 6.55733H25.0728ZM22.5444 23.3864L11.1801 8.35663H9.28716L20.7786 23.3864H22.5444Z" fill="#101719"/>
</svg>
