<svg width="38" height="31" viewBox="0 0 38 31" fill="none" xmlns="http://www.w3.org/2000/svg">
<path fill-rule="evenodd" clip-rule="evenodd" d="M19.0174 0.844482C20.6237 0.844482 22.2714 0.885815 23.8683 0.95345L25.7546 1.04363L27.5601 1.15072L29.251 1.26532L30.7953 1.38556C32.4715 1.51311 34.0489 2.22806 35.2497 3.40448C36.4506 4.58089 37.1977 6.14331 37.3597 7.81654L37.4348 8.61501L37.5757 10.3247C37.7072 12.0963 37.8049 14.0277 37.8049 15.8745C37.8049 17.7213 37.7072 19.6527 37.5757 21.4244L37.4348 23.134L37.3597 23.9325C37.1977 25.606 36.4502 27.1687 35.249 28.3451C34.0478 29.5216 32.47 30.2363 30.7934 30.3635L29.2528 30.4818L27.562 30.5983L25.7546 30.7054L23.8683 30.7956C22.2523 30.8656 20.635 30.9019 19.0174 30.9045C17.3998 30.9019 15.7825 30.8656 14.1665 30.7956L12.2802 30.7054L10.4747 30.5983L8.78382 30.4818L7.23949 30.3635C5.56329 30.2359 3.98586 29.521 2.78505 28.3445C1.58423 27.1681 0.837054 25.6057 0.675123 23.9325L0.599973 23.134L0.459066 21.4244C0.315967 19.5778 0.239515 17.7266 0.229858 15.8745C0.229858 14.0277 0.327554 12.0963 0.459066 10.3247L0.599973 8.61501L0.675123 7.81654C0.836991 6.14361 1.5839 4.58142 2.78433 3.40505C3.98476 2.22867 5.56175 1.51354 7.23761 1.38556L8.78007 1.26532L10.4709 1.15072L12.2783 1.04363L14.1646 0.95345C15.7812 0.883424 17.3992 0.847093 19.0174 0.844482ZM15.2599 11.3185V20.4305C15.2599 21.2985 16.1993 21.8396 16.9508 21.4074L24.8415 16.8515C25.0132 16.7526 25.1559 16.6103 25.255 16.4388C25.3542 16.2673 25.4064 16.0726 25.4064 15.8745C25.4064 15.6764 25.3542 15.4818 25.255 15.3103C25.1559 15.1387 25.0132 14.9964 24.8415 14.8976L16.9508 10.3435C16.7793 10.2445 16.5849 10.1924 16.387 10.1924C16.189 10.1925 15.9946 10.2446 15.8232 10.3436C15.6518 10.4427 15.5095 10.5851 15.4106 10.7565C15.3118 10.928 15.2598 11.1225 15.2599 11.3204V11.3185Z" fill="#101719"/>
</svg>
